<?xml version="1.0" encoding="UTF-8" standalone="no"?><!DOCTYPE svg PUBLIC "-//W3C//DTD SVG 1.1//EN" "http://www.w3.org/Graphics/SVG/1.1/DTD/svg11.dtd"><svg width="100%" height="100%" viewBox="0 0 6667 5000" version="1.1" xmlns="http://www.w3.org/2000/svg" xmlns:xlink="http://www.w3.org/1999/xlink" xml:space="preserve" xmlns:serif="http://www.serif.com/" style="fill-rule:evenodd;clip-rule:evenodd;stroke-linejoin:round;stroke-miterlimit:2;"><g id="Layer-1" serif:id="Layer 1"><path d="M4148.79,3499.84c121.601,-100.37 266.408,-157.684 350.498,-260.886c308.513,-378.846 480.191,-616.169 724.179,-942.651c154.185,-199.55 741.053,-1034.9 997.203,-1322.52c143.546,-161.04 362.637,-196.313 362.637,-196.313c-0,-0 -589.083,1394.45 -672.625,1570.36c-101.703,214.211 -401.124,780.183 -640.708,925.466c-99.489,60.384 -218.234,226.541 -1121.18,226.541" style="fill:#00184f;fill-rule:nonzero;"/><path d="M219.076,3571.85c-0,0 3518.95,0.334 3581.36,0.167c257.197,-0.571 933.868,-8.188 1122.61,-72.142c-167.133,87.303 -596.056,320.056 -1326.83,334.98c-30.204,0.619 -3481.66,0.857 -3512.86,0.69c18.47,-38.082 135.715,-263.695 135.715,-263.695" style="fill:#00184f;fill-rule:nonzero;"/><path d="M1584.47,2042.67c27.157,25.277 27.085,63.788 -0.167,115.508c-19.731,37.582 -48.245,69.262 -85.613,95.158c-40.605,28.466 -82.758,42.675 -126.385,42.675l-480.097,0l262.886,-499.875l471.551,0c43.604,0 70.738,14.21 81.425,42.724c9.449,25.919 4.379,57.575 -15.4,95.133c-24.491,46.556 -60.598,82.829 -108.2,108.677m-151.662,136.644c16.637,-0 31.465,-12.472 44.651,-37.44c13.138,-24.967 11.377,-37.439 -5.26,-37.439l-363.756,-0l-39.438,74.879l363.803,-0Zm93.039,-191.577c16.661,-0 31.56,-12.496 44.651,-37.44c13.186,-24.991 11.377,-37.463 -5.284,-37.463l-356.02,0l-39.415,74.903l356.068,-0Z" style="fill:#00184f;fill-rule:nonzero;"/><path d="M2124.75,2295.99l-495.519,0l263.004,-499.851l115.389,-0l-201.526,383.225l380.06,-0l-61.408,116.626Z" style="fill:#00184f;fill-rule:nonzero;"/><path d="M2931.62,2141.4c-22.183,42.152 -54.433,78.449 -96.8,108.915c-42.319,30.489 -84.018,45.698 -125.052,45.698l-327.149,0c-41.724,0 -67.5,-15.209 -77.473,-45.698c-9.949,-30.466 -3.832,-66.763 18.303,-108.915l181.675,-345.262l115.461,0l-181.628,345.262c-13.305,25.277 -11.591,37.916 5.141,37.916l327.982,-0c16.066,-0 30.775,-12.639 44.056,-37.916l181.676,-345.262l115.46,0l-181.652,345.262Z" style="fill:#00184f;fill-rule:nonzero;"/><path d="M3697.45,1912.84l-412.786,-0l-39.415,74.879l385.938,-0l-61.431,116.721l-385.796,0l-39.462,74.903l411.834,0l-61.384,116.65l-527.27,0l262.933,-499.851l528.294,-0l-61.455,116.698Z" style="fill:#00184f;fill-rule:nonzero;"/><path d="M4343.11,1912.84l-412.81,-0l-39.343,74.879l386.819,-0l-61.432,116.721l-386.771,0l-100.822,191.553l-115.437,0l262.933,-499.851l528.318,-0l-61.455,116.698Z" style="fill:#00184f;fill-rule:nonzero;"/><path d="M4359.03,2295.99l-115.484,0l262.957,-499.851l115.484,-0l-262.957,499.851Z" style="fill:#00184f;fill-rule:nonzero;"/><path d="M5004.66,2295.99l-115.46,0l-120.339,-336.455l-177.011,336.455l-115.412,0l262.933,-499.851l115.484,-0l121.291,334.503l175.987,-334.503l115.532,-0l-263.005,499.851Z" style="fill:#00184f;fill-rule:nonzero;"/><path d="M973.22,3061.1l-92.991,0l67.143,-127.718l-244.915,0l49.459,-93.944l244.963,0l29.632,-56.432c10.759,-20.374 9.331,-30.585 -4.093,-30.585l-263.528,-0c-12.925,-0 -24.706,10.163 -35.417,30.489l-146.33,278.19l-93.04,0l146.426,-278.332c17.827,-33.894 43.652,-63.145 77.473,-87.613c33.774,-24.444 67.31,-36.678 100.323,-36.678l263.576,0c33.583,0 54.409,12.234 62.43,36.678c8.045,24.468 3.166,53.719 -14.685,87.613l-146.426,278.332Z" style="fill:#1d63ab;fill-rule:nonzero;"/><path d="M1743.9,2658.47l-414.88,402.623l-79.092,0l7.973,-402.623l103.869,0l-4.76,275.691l283.069,-275.691l103.821,0Z" style="fill:#1d63ab;fill-rule:nonzero;"/><path d="M1708.84,3061.1l-93.039,0l211.832,-402.623l93.039,0l-211.832,402.623Z" style="fill:#1d63ab;fill-rule:nonzero;"/><path d="M2292.5,3061.1l-92.992,0l67.12,-127.718l-244.915,0l49.482,-93.944l244.916,0l29.704,-56.432c10.687,-20.374 9.354,-30.585 -4.094,-30.585l-263.576,-0c-12.9,-0 -24.682,10.163 -35.368,30.489l-146.331,278.19l-93.063,0l146.426,-278.332c17.875,-33.894 43.675,-63.145 77.521,-87.613c33.798,-24.444 67.191,-36.678 100.298,-36.678l263.528,0c33.584,0 54.386,12.234 62.479,36.678c7.997,24.468 3.118,53.719 -14.709,87.613l-146.426,278.332Z" style="fill:#1d63ab;fill-rule:nonzero;"/><path d="M2991.25,2752.42l-179.891,-0l-162.325,308.655l-93.039,0l162.444,-308.655l-179.89,-0l49.483,-93.944l452.677,-0l-49.459,93.944Z" style="fill:#1d63ab;fill-rule:nonzero;"/><path d="M3016.45,3061.1l-93.04,0l211.808,-402.623l93.063,0l-211.831,402.623Z" style="fill:#1d63ab;fill-rule:nonzero;"/><path d="M3672.58,2933.65c-19.255,36.487 -47.864,66.882 -85.875,91.088c-38.13,24.229 -75.26,36.344 -111.366,36.344l-234.134,0c-36.178,0 -60.551,-12.115 -73.094,-36.344c-12.614,-24.206 -9.282,-54.601 9.925,-91.088l77.712,-147.782c19.16,-36.44 47.912,-66.882 85.97,-91.088c38.011,-24.23 75.141,-36.321 111.295,-36.321l234.11,0c36.178,0 60.526,12.091 73.117,36.321c12.591,24.206 9.283,54.648 -9.949,91.088l-77.711,147.782Zm-92.968,-0.095l77.592,-147.568c11.83,-22.35 5.308,-33.56 -19.564,-33.56l-234.039,-0c-24.824,-0 -43.08,11.21 -54.862,33.56l-77.592,147.568c-11.782,22.373 -5.284,33.536 19.517,33.536l234.062,-0c24.849,-0 43.152,-11.163 54.886,-33.536" style="fill:#1d63ab;fill-rule:nonzero;"/><path d="M4125.62,3061.1l-92.992,0l-96.919,-271.049l-142.617,271.049l-92.992,0l211.808,-402.623l93.015,0l97.776,269.479l141.737,-269.479l93.016,0l-211.832,402.623Z" style="fill:#1d63ab;fill-rule:nonzero;"/><path d="M1467.33,3950.95l2.689,151.304l-1.428,42.129l16.304,-41.248l61.55,-152.185l57.623,-0l-0.833,151.304l-0.928,42.129l16.518,-40.534l67.215,-152.899l55.528,-0l-129.145,264.218l-52.149,-0l0.904,-154.494l1.381,-51.102l-19.827,51.102l-64.001,154.494l-50.792,-0l-18.613,-264.218l58.004,-0Z" style="fill:#00184f;fill-rule:nonzero;"/><path d="M1957.95,3997.76l-138.333,-0l-11.734,56.076l127.004,-0l-9.735,45.936l-127.027,0l-14.21,67.905l144.784,0l-9.949,47.508l-198.123,-0l55.505,-264.242l191.744,-0l-9.926,46.817Z" style="fill:#00184f;fill-rule:nonzero;"/><path d="M1996.1,4033.79c12.305,-3.689 21.564,-9.973 27.824,-18.874c3.451,-5.237 5.593,-10.544 6.402,-15.924l-27.823,0l9.925,-47.102l50.53,-0l-7.974,37.772c-3.784,18.042 -11.162,32.346 -21.992,42.676c-10.877,10.377 -24.515,17.137 -40.986,20.207l4.094,-18.755Z" style="fill:#00184f;fill-rule:nonzero;"/><path d="M2117.76,3950.95l54.625,-0l-45.604,216.687l129.479,-0l-9.877,47.531l-184.151,-0l55.528,-264.218Z" style="fill:#00184f;fill-rule:nonzero;"/><path d="M2339.66,3950.95l54.601,-0l-45.58,216.687l129.527,-0l-9.925,47.531l-184.127,-0l55.504,-264.218Z" style="fill:#00184f;fill-rule:nonzero;"/><path d="M2846.07,3950.95l-9.973,46.84l-78.211,0l-45.555,217.378l-55.005,-0l45.603,-217.378l-78.592,0l9.949,-46.84l211.784,-0Z" style="fill:#00184f;fill-rule:nonzero;"/><path d="M2926.07,3950.95l61.693,-0l37.082,264.218l-59.217,-0l-5.498,-54.315l-96.324,0l-29.443,54.315l-57.123,-0l148.83,-264.218Zm-38.011,164.348l66.358,-0l-10.782,-103.941l-55.576,103.941Z" style="fill:#00184f;fill-rule:nonzero;"/><path d="M3114.44,3950.95l53.744,-0l-22.897,108.819l123.814,-108.819l70.571,-0l-130.003,108.819l79.997,155.399l-70.238,-0l-56.576,-115.413l-31.751,27.086l-18.493,88.327l-53.696,-0l55.528,-264.218Z" style="fill:#00184f;fill-rule:nonzero;"/><path d="M3559.27,3997.76l-138.333,-0l-11.734,56.076l127.004,-0l-9.759,45.936l-126.98,0l-14.233,67.905l144.783,0l-9.925,47.508l-198.146,-0l55.529,-264.242l191.695,-0l-9.901,46.817Z" style="fill:#00184f;fill-rule:nonzero;"/><path d="M3861.87,3950.95l61.907,-0l-122.243,164.919l-20.707,99.299l-54.648,-0l20.755,-99.299l-55.695,-164.919l64.382,-0l29.966,115.103l76.283,-115.103Z" style="fill:#00184f;fill-rule:nonzero;"/><path d="M4105.58,4191.73c-24.016,20.541 -54.695,30.799 -92.04,30.799c-37.368,0 -63.811,-10.258 -79.306,-30.799c-21.183,-25.205 -26.729,-61.55 -16.637,-109.01c10.14,-48.388 31.013,-84.756 62.574,-108.986c24.015,-20.564 54.695,-30.846 92.063,-30.846c37.392,-0 63.764,10.282 79.282,30.846c21.279,24.23 26.872,60.598 16.709,108.986c-10.092,47.46 -30.966,83.805 -62.645,109.01m7.973,-109.01c6.189,-29.632 4.57,-52.529 -4.665,-68.809c-9.33,-16.114 -24.753,-24.23 -46.412,-24.23c-21.636,0 -40.558,8.116 -56.814,24.182c-16.28,16.161 -27.538,39.106 -33.822,68.857c-6.259,29.776 -4.665,52.696 4.784,68.834c9.473,16.089 25.039,24.229 46.651,24.229c21.635,0 40.534,-8.14 56.719,-24.229c16.137,-16.138 27.323,-39.058 33.559,-68.834" style="fill:#00184f;fill-rule:nonzero;"/><path d="M4237.56,3950.95l55.528,-0l-34.226,162.443c-3.808,18.161 -4.451,31.442 -1.975,39.772c3.522,14.805 16.446,22.255 38.677,22.255c22.087,-0 37.987,-7.45 47.721,-22.255c5.998,-8.33 10.901,-21.611 14.733,-39.772l34.203,-162.443l55.528,-0l-34.25,162.443c-5.879,28.086 -14.804,49.959 -26.753,65.597c-22.111,28.68 -55.861,43.009 -101.084,43.009c-45.365,-0 -73.046,-14.329 -83.257,-43.009c-5.284,-15.638 -4.998,-37.511 0.929,-65.597l34.226,-162.443Z" style="fill:#00184f;fill-rule:nonzero;"/><path d="M4790.77,3950.95l-9.901,46.84l-78.235,0l-45.579,217.378l-55.029,-0l45.58,-217.378l-78.569,0l9.949,-46.84l211.784,-0Z" style="fill:#00184f;fill-rule:nonzero;"/><path d="M4766.86,4215.18l55.48,-264.218l54.101,-0l-21.302,100.775l102.179,-0l21.278,-100.775l54.315,-0l-55.529,264.218l-54.291,0l24.682,-117.912l-102.155,0l-24.682,117.912l-54.076,0Z" style="fill:#00184f;fill-rule:nonzero;"/><path d="M5268.45,3997.76l-138.357,-0l-11.686,56.076l126.98,-0l-9.735,45.936l-127.004,0l-14.233,67.905l144.783,0l-9.949,47.508l-198.122,-0l55.529,-264.242l191.719,-0l-9.925,46.817Z" style="fill:#00184f;fill-rule:nonzero;"/><path d="M5518.88,3976.22c4.26,6.712 7.188,14.138 8.806,22.254c1.595,8.093 1.333,17.351 -0.809,27.753c-2.69,12.59 -8.497,24.896 -17.28,37.058c-8.83,12.115 -20.969,20.707 -36.464,25.706c10.997,4.926 18.042,11.829 21.207,20.85c3.118,9.092 2.761,22.825 -1.166,41.39l-3.737,17.732c-2.475,12.043 -3.713,20.231 -3.713,24.539c0,6.855 2.238,11.853 6.76,15.066l-1.262,6.617l-60.145,0c-0.453,-5.831 -0.691,-10.568 -0.691,-14.138c0.096,-7.426 0.952,-15.018 2.476,-22.754l4.808,-24.587c3.332,-16.851 2.594,-28.085 -2.047,-33.702c-4.665,-5.57 -15.043,-8.426 -31.109,-8.426l-56.456,0l-21.636,103.607l-53.362,0l55.504,-264.242l128.242,-0c18.208,0.357 31.822,2.666 40.771,6.879c8.997,4.117 16.114,10.282 21.303,18.398m-146.688,20.636l-14.852,70.999l61.884,0c12.305,0 21.802,-1.428 28.561,-4.284c11.948,-5.07 19.493,-14.971 22.683,-29.776c3.308,-16.042 0.309,-26.752 -9.021,-32.298c-5.379,-3.07 -13.9,-4.641 -25.729,-4.641l-63.526,-0Z" style="fill:#00184f;fill-rule:nonzero;"/><path d="M5773.07,3997.76l-138.38,-0l-11.663,56.076l126.98,-0l-9.759,45.936l-127.003,0l-14.21,67.905l144.784,0l-9.949,47.508l-198.146,-0l55.552,-264.242l191.72,-0l-9.926,46.817Z" style="fill:#00184f;fill-rule:nonzero;"/></g></svg>