<?xml version="1.0" encoding="UTF-8" standalone="no"?>
<!DOCTYPE svg PUBLIC "-//W3C//DTD SVG 1.1//EN" "http://www.w3.org/Graphics/SVG/1.1/DTD/svg11.dtd">
<svg width="100%" height="100%" viewBox="0 0 6500 3059" version="1.1" xmlns="http://www.w3.org/2000/svg" xmlns:xlink="http://www.w3.org/1999/xlink" xml:space="preserve" xmlns:serif="http://www.serif.com/" style="fill-rule:evenodd;clip-rule:evenodd;stroke-linejoin:round;stroke-miterlimit:2;">
    <g transform="matrix(1,0,0,1,-83.356,-777.47)">
        <path d="M4148.79,3499.84C4270.39,3399.47 4415.2,3342.16 4499.29,3238.95C4807.8,2860.11 4979.48,2622.78 5223.47,2296.3C5377.65,2096.75 5964.52,1261.4 6220.67,973.783C6364.22,812.743 6583.31,777.47 6583.31,777.47C6583.31,777.47 5994.22,2171.92 5910.68,2347.83C5808.98,2562.04 5509.56,3128.01 5269.97,3273.3C5170.48,3333.68 5051.74,3499.84 4148.79,3499.84" style="fill:rgb(0,24,79);fill-rule:nonzero;"/>
    </g>
    <g transform="matrix(1,0,0,1,-83.356,-777.47)">
        <path d="M219.076,3571.85C219.076,3571.85 3738.03,3572.18 3800.44,3572.02C4057.63,3571.45 4734.3,3563.83 4923.05,3499.88C4755.91,3587.18 4326.99,3819.93 3596.22,3834.86C3566.01,3835.47 114.556,3835.71 83.356,3835.55C101.826,3797.46 219.071,3571.85 219.071,3571.85" style="fill:rgb(0,24,79);fill-rule:nonzero;"/>
    </g>
</svg>
